# xmcd
#
# Track frame offsets:
#	182
#	12265
#	29710
#	44267
#	57715
#	69122
#	83700
#	96232
#	110632
#	124617
#	135967
#
# Disc length: 2039 seconds
#
# Revision: 0
# Processed by: cddbd v1.5.2PL0 Copyright (c) Steve Scherf et al.
# Submitted via: audiograbber 1.83.01
#
DISCID=9007f50b
DTITLE=Varius - Ανθολογία Ελληνικού Τραγουδιού Μέρος Α'
DYEAR=1900
DGENRE=
TTITLE0=Χριστάκης - Έμαθα Πως Είσαι Μάγκας 
TTITLE1=Περπινιάδης Βαγγέλης  - Ανεβαίνω Σκαλοπάτια 
TTITLE2=Γαβαλάς Πάνος  - Μπρος Γκρεμός Και Πίσω Ρέμα 
TTITLE3=Ιωάννου Α.  - Όση Γλύκα Έχουν Τα Χείλη Σου 
TTITLE4=Νικολαΐδης Απ.  - Τα Λεμονάδικα 
TTITLE5=Γαβαλάς Πάνος  - Έχω Μαράζι Στην Καρδιά 
TTITLE6=Ζαγοραίος Σπύρος  - Ο Αλήτης 
TTITLE7=Χριστάκης  - Η Γάτα 
TTITLE8=Πόλυ Πάνου  - Μη Μου Μιλάς Για Βάσανα 
TTITLE9=Μαριανού Μίνα  - Φέρτε Μια Κούπα Με Κρασί 
TTITLE10=Σταματελάτος Σέργιος  - ’στρο Της Ζωής Μου ’στρο
EXTD=
EXTT0=
EXTT1=
EXTT2=
EXTT3=
EXTT4=
EXTT5=
EXTT6=
EXTT7=
EXTT8=
EXTT9=
EXTT10=
PLAYORDER=
